<svg width="121" height="30" viewBox="0 0 121 30" fill="none" xmlns="http://www.w3.org/2000/svg">
<g clip-path="url(#clip0)">
<path d="M-1.24416e-07 28.5769C-5.57028e-08 29.3628 0.641244 30 1.43226 30L119.439 30C120.6 30 121.279 28.6993 120.61 27.7566L112.557 16.412C112.22 15.9366 112.207 15.3051 112.526 14.8171L120.767 2.19781C121.385 1.251 120.701 8.9205e-07 119.565 9.91353e-07L1.43225 1.13189e-05C0.641239 1.1388e-05 -2.56698e-06 0.637179 -2.49827e-06 1.42316L-1.24416e-07 28.5769Z" fill="#70A0FF"/>
<path d="M39.5547 12.875L36.4007 10.9096L34.3808 14.0751L37.5348 16.0406L39.5547 12.875Z" fill="black"/>
<path d="M37.5359 16.0406L34.3819 14.0752L26.0004 25.0518L31.1256 28.2456L37.5359 16.0406Z" fill="white"/>
<path d="M35.4738 8.65522C34.1881 10.8822 35.2585 12.2425 35.9544 12.6443L37.6942 13.6488C40.3662 15 41.4175 14.3974 42.8662 11.5C44.8662 7.5 43.7343 3.99071 43.3732 3.00897C43.3662 6 40.4004 6.55078 39.5706 6.38096C38.7407 6.21114 36.7596 6.42825 35.4738 8.65522Z" fill="black"/>
<path d="M37.9883 25.1487C37.9883 24.7291 37.6938 24.3697 37.289 24.2951L24.9662 22.0258C24.4444 21.9297 23.9646 22.3386 23.9646 22.8793V29.1325C23.9646 29.6116 24.3454 29.9999 24.815 29.9999H37.1379C37.6075 29.9999 37.9883 29.6116 37.9883 29.1325V25.1487Z" fill="black"/>
<path d="M30.7109 9.40451C30.7109 8.52419 29.9995 7.81055 29.1219 7.81055H9.93311C9.05551 7.81055 8.34408 8.52419 8.34408 9.40451V28.4059C8.34408 29.2863 9.05551 29.9999 9.93311 29.9999H29.1219C29.9995 29.9999 30.7109 29.2863 30.7109 28.4059V9.40451Z" fill="black"/>
<path d="M20.7704 18.9939C20.7704 22.1312 22.5189 24.6744 24.6757 24.6744C26.8326 24.6744 28.5811 22.1312 28.5811 18.9939C28.5811 15.8567 26.8326 13.3135 24.6757 13.3135C22.5189 13.3135 20.7704 15.8567 20.7704 18.9939Z" fill="white"/>
<path d="M27.4559 17.3632C27.8339 19.2207 27.296 20.8845 26.2545 21.0795C25.2131 21.2745 24.0624 19.9268 23.6844 18.0693C23.3064 16.2118 23.8443 14.548 24.8858 14.353C25.9272 14.158 27.0779 15.5058 27.4559 17.3632Z" fill="black"/>
<path d="M10.4745 18.9939C10.4745 22.1312 12.223 24.6744 14.3798 24.6744C16.5367 24.6744 18.2852 22.1312 18.2852 18.9939C18.2852 15.8567 16.5367 13.3135 14.3798 13.3135C12.223 13.3135 10.4745 15.8567 10.4745 18.9939Z" fill="white"/>
<path d="M13.8193 18.3074C14.2719 20.1481 15.4696 21.4221 16.4945 21.153C17.5193 20.8839 17.9831 19.1736 17.5305 17.3329C17.0779 15.4922 15.8802 14.2182 14.8553 14.4873C13.8305 14.7564 13.3667 16.4667 13.8193 18.3074Z" fill="black"/>
<path d="M30.7109 0.745051V13.9883C30.7109 14.4447 30.197 14.7138 29.8196 14.4551L23.1468 9.88195C22.8785 9.69806 22.8196 9.32774 23.0178 9.07027L29.6906 0.400251C30.0214 -0.0295403 30.7109 0.203481 30.7109 0.745051Z" fill="black"/>
<path fill-rule="evenodd" clip-rule="evenodd" d="M29.6914 0.422581C30.0127 0.00436095 30.6826 0.231109 30.6826 0.7581V13.9752C30.6826 14.4193 30.1834 14.6812 29.8167 14.4295L23.1681 9.86534C22.9074 9.6864 22.8502 9.32606 23.0427 9.07552L29.6914 0.422581ZM30.7109 0.7581C30.7109 0.204084 30.0067 -0.0342924 29.6689 0.405375L23.0203 9.05831C22.8179 9.3217 22.878 9.70053 23.152 9.88864L29.8006 14.4528C30.1861 14.7175 30.7109 14.4421 30.7109 13.9752V0.7581Z" fill="black"/>
<path d="M8.34375 0.745051V13.9883C8.34375 14.4447 8.85765 14.7138 9.23509 14.4551L15.9079 9.88195C16.1762 9.69806 16.2351 9.32774 16.0369 9.07027L9.36411 0.400251C9.03332 -0.0295403 8.34375 0.203481 8.34375 0.745051Z" fill="black"/>
<path fill-rule="evenodd" clip-rule="evenodd" d="M9.36333 0.422581C9.04199 0.00436095 8.37209 0.231109 8.37209 0.7581V13.9752C8.37209 14.4193 8.87132 14.6812 9.23799 14.4295L15.8866 9.86534C16.1473 9.6864 16.2044 9.32606 16.0119 9.07552L9.36333 0.422581ZM8.34375 0.7581C8.34375 0.204084 9.048 -0.0342924 9.38582 0.405375L16.0344 9.05831C16.2368 9.3217 16.1767 9.70053 15.9027 9.88864L9.25406 14.4528C8.86858 14.7175 8.34375 14.4421 8.34375 13.9752V0.7581Z" fill="black"/>
<path d="M50.491 18.1545L50.8608 17.6981C51.2767 17.1589 51.5136 16.3501 51.5713 15.2718L51.6695 12.7761H55.6961V18.1545H56.4991V20.8639H55.4303V19.0268H51.0687V20.8639H50L50.0058 18.1545H50.491ZM51.7562 18.1545H54.6273V13.764H52.7036L52.6401 15.2544C52.5746 16.4984 52.28 17.4651 51.7562 18.1545Z" fill="black"/>
<path d="M61.7864 12.7761H62.8551V19.0268H61.7864V14.4688L58.9037 19.0268H57.8349V12.7761H58.9037V17.3399L61.7864 12.7761Z" fill="black"/>
<path d="M68.0673 14.4861C68.0673 14.1934 67.9556 13.9623 67.7322 13.7929C67.5089 13.6196 67.2027 13.5329 66.8137 13.5329C66.4363 13.5329 66.1205 13.6311 65.8663 13.8275C65.616 14.0239 65.4908 14.255 65.4908 14.5208H64.4278C64.4278 13.9777 64.6551 13.5329 65.1095 13.1863C65.564 12.8397 66.132 12.6664 66.8137 12.6664C67.5455 12.6664 68.1154 12.8243 68.5237 13.1401C68.9319 13.452 69.136 13.8988 69.136 14.4803C69.136 14.7615 69.0513 15.0195 68.8819 15.2544C68.7124 15.4894 68.4717 15.6762 68.1597 15.8148C68.8876 16.0613 69.2516 16.5465 69.2516 17.2706C69.2516 17.8444 69.0301 18.2989 68.5872 18.634C68.1443 18.969 67.5532 19.1365 66.8137 19.1365C66.0935 19.1365 65.4985 18.9613 65.0286 18.6108C64.5626 18.2565 64.3296 17.779 64.3296 17.1782H65.3926C65.3926 17.4824 65.5274 17.7443 65.797 17.9638C66.0704 18.1795 66.4093 18.2873 66.8137 18.2873C67.2219 18.2873 67.5512 18.193 67.8016 18.0043C68.0519 17.8156 68.1771 17.571 68.1771 17.2706C68.1771 16.9201 68.0712 16.6698 67.8593 16.5196C67.6514 16.3655 67.3259 16.2885 66.883 16.2885H65.8143V15.3873H66.9755C67.7034 15.368 68.0673 15.0676 68.0673 14.4861Z" fill="black"/>
<path d="M74.5562 19.0268C74.4946 18.9035 74.4445 18.684 74.406 18.3682C73.9092 18.8843 73.3161 19.1423 72.6267 19.1423C72.0105 19.1423 71.5041 18.969 71.1074 18.6224C70.7145 18.2719 70.5181 17.829 70.5181 17.2937C70.5181 16.6428 70.7646 16.1383 71.2576 15.7801C71.7544 15.4181 72.4515 15.2371 73.3488 15.2371H74.3887V14.7461C74.3887 14.3725 74.277 14.0759 74.0536 13.8564C73.8302 13.633 73.501 13.5213 73.0658 13.5213C72.6845 13.5213 72.3648 13.6176 72.1068 13.8102C71.8487 14.0028 71.7197 14.2358 71.7197 14.5092H70.6452C70.6452 14.1973 70.755 13.8968 70.9745 13.608C71.1979 13.3153 71.4983 13.0842 71.8757 12.9148C72.257 12.7453 72.6749 12.6606 73.1293 12.6606C73.8495 12.6606 74.4137 12.8416 74.822 13.2036C75.2302 13.5618 75.442 14.0567 75.4574 14.6883V17.5652C75.4574 18.1391 75.5306 18.5954 75.6769 18.9344V19.0268H74.5562ZM72.7827 18.2122C73.1178 18.2122 73.4355 18.1256 73.7359 17.9523C74.0363 17.779 74.2539 17.5537 74.3887 17.2764V15.9939H73.551C72.2416 15.9939 71.5869 16.3771 71.5869 17.1435C71.5869 17.4786 71.6985 17.7405 71.9219 17.9292C72.1453 18.1179 72.4322 18.2122 72.7827 18.2122Z" fill="black"/>
<path d="M81.2358 12.7761H82.3045V19.0268H81.2358V14.4688L78.3531 19.0268H77.2843V12.7761H78.3531V17.3399L81.2358 12.7761ZM81.5246 10.5C81.5246 10.966 81.3648 11.3415 81.0451 11.6265C80.7293 11.9077 80.3134 12.0482 79.7973 12.0482C79.2812 12.0482 78.8634 11.9057 78.5437 11.6207C78.224 11.3357 78.0642 10.9622 78.0642 10.5H78.9365C78.9365 10.7696 79.0097 10.9814 79.1561 11.1355C79.3024 11.2857 79.5162 11.3608 79.7973 11.3608C80.0669 11.3608 80.2768 11.2857 80.427 11.1355C80.581 10.9853 80.6581 10.7734 80.6581 10.5H81.5246Z" fill="black"/>
<path d="M89.1862 19.0268H88.1175V16.3578H85.2463V19.0268H84.1718V12.7761H85.2463V15.4855H88.1175V12.7761H89.1862V19.0268Z" fill="black"/>
<path d="M93.5608 19.1423C92.7135 19.1423 92.0241 18.865 91.4926 18.3104C90.9611 17.752 90.6954 17.0068 90.6954 16.0748V15.8783C90.6954 15.2583 90.8129 14.7056 91.0478 14.2204C91.2866 13.7312 91.6178 13.35 92.0414 13.0765C92.4689 12.7992 92.9311 12.6606 93.4279 12.6606C94.2405 12.6606 94.8721 12.9282 95.3227 13.4636C95.7733 13.9989 95.9986 14.7653 95.9986 15.7628V16.2076H91.7641C91.7795 16.8238 91.9586 17.3226 92.3014 17.7039C92.648 18.0813 93.0871 18.27 93.6185 18.27C93.996 18.27 94.3156 18.193 94.5775 18.0389C94.8394 17.8849 95.0686 17.6808 95.265 17.4266L95.9178 17.9349C95.394 18.7399 94.6083 19.1423 93.5608 19.1423ZM93.4279 13.5387C92.9966 13.5387 92.6345 13.6966 92.3418 14.0124C92.0491 14.3243 91.8681 14.7634 91.7988 15.3295H94.9299V15.2487C94.8991 14.7056 94.7528 14.2858 94.4909 13.9893C94.229 13.6889 93.8747 13.5387 93.4279 13.5387Z" fill="black"/>
<path d="M102.58 15.9708C102.58 16.922 102.362 17.6885 101.927 18.27C101.492 18.8516 100.903 19.1423 100.159 19.1423C99.4007 19.1423 98.8038 18.9016 98.3686 18.4202V21.43H97.2999V12.7761H98.2762L98.3282 13.4694C98.7633 12.9302 99.368 12.6606 100.142 12.6606C100.893 12.6606 101.486 12.9437 101.921 13.5098C102.36 14.0759 102.58 14.8635 102.58 15.8726V15.9708ZM101.511 15.8495C101.511 15.1447 101.361 14.5882 101.061 14.1799C100.76 13.7717 100.348 13.5676 99.8244 13.5676C99.1774 13.5676 98.6921 13.8545 98.3686 14.4283V17.415C98.6882 17.985 99.1774 18.27 99.8359 18.27C100.348 18.27 100.754 18.0678 101.055 17.6634C101.359 17.2552 101.511 16.6505 101.511 15.8495Z" fill="black"/>
<path d="M43.4017 2.99973C42.2944 6.27296 40.7813 6.4015 39.6352 6.4015C39.4664 6.91084 40 8.15668 41 8C43.2534 7.64693 43.5 10 43.5 10C44.5 7.5 44 4.5 43.4017 2.99973Z" fill="white"/>
</g>
<defs>
<clipPath id="clip0">
<rect width="121" height="30" fill="white"/>
</clipPath>
</defs>
</svg>
