<svg width="119" height="30" viewBox="0 0 119 30" fill="none" xmlns="http://www.w3.org/2000/svg">
<path d="M-1.24416e-07 28.5769C-5.57027e-08 29.3628 0.6359 30 1.42032 30L117.452 30C118.604 30 119.277 28.6993 118.613 27.7566L110.627 16.412C110.293 15.9366 110.281 15.3051 110.597 14.8171L118.769 2.19781C119.382 1.251 118.704 1.06668e-06 117.577 1.16515e-06L1.42032 1.13199e-05C0.635895 1.13885e-05 -2.56698e-06 0.637179 -2.49827e-06 1.42316L-1.24416e-07 28.5769Z" fill="#F498AD"/>
<path d="M37.9902 13.7236L33.2003 10.0613L22.5539 23.6808L27.3438 27.3431L37.9902 13.7236Z" fill="white"/>
<path d="M41.3799 4.49254L33.1912 10.0605L37.9842 13.719L41.3799 4.49254Z" fill="black"/>
<path d="M41.3819 4.49064L40.3087 7.45438L38.752 6.26412L41.3819 4.49064Z" fill="white"/>
<path d="M37.9883 25.1487C37.9883 24.7291 37.6938 24.3697 37.289 24.2951L24.9662 22.0258C24.4444 21.9297 23.9646 22.3386 23.9646 22.8793V29.1325C23.9646 29.6116 24.3454 29.9999 24.815 29.9999H37.1379C37.6075 29.9999 37.9883 29.6116 37.9883 29.1325V25.1487Z" fill="black"/>
<path d="M30.71 9.40451C30.71 8.52419 29.9985 7.81055 29.1209 7.81055H9.93213C9.05453 7.81055 8.3431 8.52419 8.3431 9.40451V28.4059C8.3431 29.2863 9.05453 29.9999 9.93213 29.9999H29.1209C29.9985 29.9999 30.71 29.2863 30.71 28.4059V9.40451Z" fill="black"/>
<path d="M20.7694 18.9939C20.7694 22.1312 22.5179 24.6744 24.6748 24.6744C26.8316 24.6744 28.5801 22.1312 28.5801 18.9939C28.5801 15.8567 26.8316 13.3135 24.6748 13.3135C22.5179 13.3135 20.7694 15.8567 20.7694 18.9939Z" fill="white"/>
<path d="M21.9121 20.6609C22.3647 22.5016 23.5624 23.7757 24.5872 23.5066C25.6121 23.2374 26.0759 21.5271 25.6233 19.6864C25.1706 17.8457 23.9729 16.5717 22.9481 16.8408C21.9233 17.1099 21.4594 18.8202 21.9121 20.6609Z" fill="black"/>
<path d="M10.4726 18.9939C10.4726 22.1312 12.221 24.6744 14.3779 24.6744C16.5347 24.6744 18.2832 22.1312 18.2832 18.9939C18.2832 15.8567 16.5347 13.3135 14.3779 13.3135C12.221 13.3135 10.4726 15.8567 10.4726 18.9939Z" fill="white"/>
<path d="M11.5898 20.6609C12.0424 22.5016 13.2401 23.7757 14.265 23.5066C15.2898 23.2374 15.7536 21.5271 15.301 19.6864C14.8484 17.8457 13.6507 16.5717 12.6258 16.8408C11.601 17.1099 11.1372 18.8202 11.5898 20.6609Z" fill="black"/>
<path d="M30.71 0.745051V13.9883C30.71 14.4447 30.1961 14.7138 29.8186 14.4551L23.1458 9.88195C22.8775 9.69806 22.8186 9.32774 23.0168 9.07027L29.6896 0.400251C30.0204 -0.0295403 30.71 0.203481 30.71 0.745051Z" fill="black"/>
<path fill-rule="evenodd" clip-rule="evenodd" d="M29.6904 0.422581C30.0117 0.00436095 30.6816 0.231109 30.6816 0.7581V13.9752C30.6816 14.4193 30.1824 14.6812 29.8157 14.4295L23.1671 9.86534C22.9064 9.6864 22.8493 9.32606 23.0418 9.07552L29.6904 0.422581ZM30.71 0.7581C30.71 0.204084 30.0057 -0.0342924 29.6679 0.405375L23.0193 9.05831C22.8169 9.3217 22.877 9.70053 23.151 9.88864L29.7997 14.4528C30.1851 14.7175 30.71 14.4421 30.71 13.9752V0.7581Z" fill="black"/>
<path d="M8.34375 0.745051V13.9883C8.34375 14.4447 8.85765 14.7138 9.23509 14.4551L15.9079 9.88195C16.1762 9.69806 16.2351 9.32774 16.0369 9.07027L9.36411 0.400251C9.03332 -0.0295403 8.34375 0.203481 8.34375 0.745051Z" fill="black"/>
<path fill-rule="evenodd" clip-rule="evenodd" d="M9.36333 0.422581C9.04199 0.00436095 8.37209 0.231109 8.37209 0.7581V13.9752C8.37209 14.4193 8.87132 14.6812 9.23799 14.4295L15.8866 9.86534C16.1473 9.6864 16.2044 9.32606 16.0119 9.07552L9.36333 0.422581ZM8.34375 0.7581C8.34375 0.204084 9.048 -0.0342924 9.38582 0.405375L16.0344 9.05831C16.2368 9.3217 16.1767 9.70053 15.9027 9.88864L9.25406 14.4528C8.86858 14.7175 8.34375 14.4421 8.34375 13.9752V0.7581Z" fill="black"/>
<path d="M54.5077 15.9538C54.5077 16.9166 54.2878 17.6924 53.848 18.2809C53.4083 18.8695 52.8128 19.1638 52.0616 19.1638C51.2949 19.1638 50.6917 18.9202 50.2519 18.433V21.4793H49.1719V12.7205H50.1585L50.211 13.4221C50.6508 12.8764 51.2619 12.6035 52.0441 12.6035C52.8031 12.6035 53.4024 12.89 53.8422 13.463C54.2859 14.036 54.5077 14.8332 54.5077 15.8544V15.9538ZM53.4277 15.8311C53.4277 15.1177 53.2759 14.5545 52.9724 14.1413C52.6688 13.7281 52.2524 13.5215 51.723 13.5215C51.0692 13.5215 50.5788 13.8119 50.2519 14.3927V17.4156C50.5749 17.9925 51.0692 18.2809 51.7347 18.2809C52.2524 18.2809 52.663 18.0763 52.9665 17.667C53.274 17.2538 53.4277 16.6418 53.4277 15.8311Z" fill="black"/>
<path d="M58.5665 19.1638C57.7103 19.1638 57.0136 18.8832 56.4765 18.3219C55.9394 17.7567 55.6709 17.0024 55.6709 16.0591V15.8603C55.6709 15.2327 55.7896 14.6734 56.027 14.1822C56.2683 13.6872 56.603 13.3013 57.0311 13.0245C57.4631 12.7438 57.9302 12.6035 58.4322 12.6035C59.2534 12.6035 59.8917 12.8744 60.3471 13.4162C60.8024 13.9581 61.0301 14.7338 61.0301 15.7434V16.1936H56.7509C56.7665 16.8173 56.9474 17.322 57.2938 17.7079C57.6441 18.0899 58.0878 18.2809 58.6249 18.2809C59.0063 18.2809 59.3293 18.203 59.594 18.0471C59.8586 17.8911 60.0902 17.6846 60.2887 17.4273L60.9484 17.9418C60.4191 18.7565 59.6251 19.1638 58.5665 19.1638ZM58.4322 13.4923C57.9963 13.4923 57.6305 13.6521 57.3347 13.9717C57.0389 14.2875 56.856 14.7318 56.7859 15.3048H59.9501V15.223C59.9189 14.6734 59.771 14.2485 59.5064 13.9483C59.2417 13.6443 58.8837 13.4923 58.4322 13.4923Z" fill="black"/>
<path d="M62.2925 18.164L62.6661 17.7021C63.0864 17.1564 63.3258 16.3378 63.3842 15.2464L63.4834 12.7205H67.5524V18.164H68.3639V20.9062H67.2839V19.0469H62.8763V20.9062H61.7963L61.8021 18.164H62.2925ZM63.571 18.164H66.4724V13.7203H64.5284L64.4642 15.2288C64.398 16.4879 64.1003 17.4663 63.571 18.164Z" fill="black"/>
<path d="M73.5202 19.0469C73.4579 18.9222 73.4073 18.7 73.3684 18.3803C72.8664 18.9027 72.267 19.1638 71.5703 19.1638C70.9476 19.1638 70.4358 18.9884 70.035 18.6376C69.638 18.2829 69.4395 17.8346 69.4395 17.2928C69.4395 16.634 69.6886 16.1234 70.1868 15.7609C70.6888 15.3945 71.3933 15.2113 72.3001 15.2113H73.3509V14.7143C73.3509 14.3362 73.238 14.036 73.0123 13.8138C72.7866 13.5878 72.4538 13.4747 72.014 13.4747C71.6287 13.4747 71.3057 13.5722 71.0449 13.7671C70.7842 13.962 70.6538 14.1978 70.6538 14.4746H69.5679C69.5679 14.1588 69.6789 13.8548 69.9007 13.5624C70.1264 13.2662 70.43 13.0323 70.8114 12.8608C71.1967 12.6893 71.619 12.6035 72.0782 12.6035C72.806 12.6035 73.3762 12.7867 73.7887 13.1531C74.2013 13.5156 74.4154 14.0165 74.4309 14.6558V17.5676C74.4309 18.1484 74.5049 18.6103 74.6528 18.9534V19.0469H73.5202ZM71.728 18.2225C72.0666 18.2225 72.3876 18.1348 72.6912 17.9594C72.9948 17.784 73.2147 17.5559 73.3509 17.2753V15.9772H72.5044C71.1811 15.9772 70.5195 16.3651 70.5195 17.1408C70.5195 17.4799 70.6324 17.745 70.8581 17.936C71.0838 18.127 71.3738 18.2225 71.728 18.2225Z" fill="black"/>
<path d="M78.1511 16.3514H77.363V19.0469H76.2771V12.7205H77.363V15.3984H78.0693L80.1943 12.7205H81.502L79.0034 15.7609L81.7122 19.0469H80.3403L78.1511 16.3514Z" fill="black"/>
<path d="M87.3939 13.5975H85.2747V19.0469H84.1947V13.5975H82.1164V12.7205H87.3939V13.5975Z" fill="black"/>
<path d="M87.9733 15.8252C87.9733 15.2054 88.0939 14.648 88.3352 14.153C88.5804 13.6579 88.919 13.2759 89.351 13.007C89.7869 12.738 90.2831 12.6035 90.8397 12.6035C91.6998 12.6035 92.3945 12.9017 92.9238 13.4981C93.457 14.0945 93.7236 14.8877 93.7236 15.8778V15.9538C93.7236 16.5697 93.6049 17.1232 93.3675 17.6144C93.134 18.1016 92.7973 18.4817 92.3575 18.7546C91.9216 19.0274 91.4196 19.1638 90.8514 19.1638C89.9951 19.1638 89.3004 18.8656 88.7672 18.2693C88.2379 17.6729 87.9733 16.8835 87.9733 15.9012V15.8252ZM89.0591 15.9538C89.0591 16.6555 89.2206 17.2187 89.5437 17.6436C89.8706 18.0685 90.3065 18.2809 90.8514 18.2809C91.4001 18.2809 91.836 18.0666 92.159 17.6378C92.4821 17.2051 92.6436 16.6009 92.6436 15.8252C92.6436 15.1314 92.4782 14.5701 92.1474 14.1413C91.8205 13.7086 91.3846 13.4923 90.8397 13.4923C90.3065 13.4923 89.8764 13.7047 89.5495 14.1296C89.2226 14.5545 89.0591 15.1626 89.0591 15.9538Z" fill="black"/>
<path d="M100.474 15.9538C100.474 16.9166 100.254 17.6924 99.814 18.2809C99.3742 18.8695 98.7787 19.1638 98.0276 19.1638C97.2608 19.1638 96.6576 18.9202 96.2178 18.433V21.4793H95.1378V12.7205H96.1244L96.1769 13.4221C96.6167 12.8764 97.2278 12.6035 98.01 12.6035C98.769 12.6035 99.3683 12.89 99.8081 13.463C100.252 14.036 100.474 14.8332 100.474 15.8544V15.9538ZM99.3936 15.8311C99.3936 15.1177 99.2418 14.5545 98.9383 14.1413C98.6347 13.7281 98.2183 13.5215 97.689 13.5215C97.0351 13.5215 96.5447 13.8119 96.2178 14.3927V17.4156C96.5408 17.9925 97.0351 18.2809 97.7006 18.2809C98.2183 18.2809 98.6289 18.0763 98.9324 17.667C99.2399 17.2538 99.3936 16.6418 99.3936 15.8311Z" fill="black"/>
</svg>
